<svg width="190" height="43" viewBox="0 0 190 43" fill="none" xmlns="http://www.w3.org/2000/svg">
<path d="M46.2821 10.2625H50.6358V31.2149H46.2821V10.2625Z" fill="#4D4D4D"/>
<path d="M53.0739 24.0374C53.074 22.53 53.5219 21.0565 54.361 19.8037C55.2002 18.5509 56.3927 17.5752 57.7874 17.0003C59.1821 16.4255 60.7163 16.2773 62.1954 16.5745C63.6745 16.8718 65.032 17.6012 66.096 18.6701C67.16 19.7391 67.882 21.0996 68.171 22.5791C68.46 24.0587 68.303 25.5906 67.719 26.9809C67.136 28.3711 66.153 29.557 64.894 30.3882C63.6354 31.2194 62.1581 31.6585 60.6494 31.6499C59.6487 31.6577 58.6565 31.4658 57.731 31.0855C56.8056 30.7052 55.9654 30.144 55.2598 29.435C54.5542 28.726 53.9975 27.8833 53.6221 26.9565C53.2467 26.0296 53.0604 25.0372 53.0739 24.0374ZM63.9872 24.0374C63.9701 23.3875 63.7616 22.7571 63.3877 22.225C63.0139 21.6929 62.4914 21.2827 61.8854 21.0458C61.2795 20.8089 60.6172 20.7557 59.9811 20.8929C59.3451 21.0301 58.7637 21.3517 58.3097 21.8173C57.8556 22.2829 57.549 22.872 57.4282 23.5108C57.3074 24.1496 57.3779 24.8098 57.6307 25.4089C57.8834 26.0079 58.3074 26.5192 58.8495 26.8787C59.3916 27.2383 60.0277 27.4302 60.6784 27.4304C61.1214 27.4391 61.5614 27.3563 61.971 27.1873C62.3805 27.0183 62.7507 26.7667 63.0586 26.4483C63.3664 26.1299 63.6051 25.7514 63.7599 25.3366C63.9147 24.9218 63.9822 24.4795 63.9582 24.0374H63.9872Z" fill="#4D4D4D"/>
<path d="M85.451 16.8601V30.5046C85.451 35.3186 81.678 37.3631 77.861 37.3631C76.515 37.4735 75.164 37.2063 73.962 36.5914C72.759 35.9766 71.753 35.0387 71.055 33.8831L74.726 31.7661C75.024 32.3655 75.497 32.86 76.083 33.1838C76.669 33.5076 77.34 33.6453 78.006 33.5786C78.431 33.6309 78.861 33.5888 79.268 33.4553C79.674 33.3218 80.046 33.1003 80.356 32.8066C80.667 32.5129 80.909 32.1543 81.064 31.7563C81.22 31.3583 81.286 30.9309 81.257 30.5046V29.1851C80.75 29.7989 80.107 30.2862 79.379 30.6083C78.651 30.9305 77.858 31.0787 77.063 31.0411C75.138 31.0411 73.293 30.2773 71.932 28.9176C70.571 27.558 69.807 25.7139 69.807 23.7911C69.807 21.8683 70.571 20.0242 71.932 18.6646C73.293 17.305 75.138 16.5411 77.063 16.5411C77.858 16.5035 78.651 16.6517 79.379 16.9739C80.107 17.2961 80.75 17.7834 81.257 18.3971V16.9471L85.451 16.8601ZM81.257 23.7476C81.286 23.0539 81.106 22.3674 80.742 21.7763C80.377 21.1853 79.844 20.7168 79.21 20.431C78.577 20.1453 77.873 20.0553 77.188 20.1728C76.503 20.2902 75.869 20.6097 75.367 21.0901C74.865 21.5705 74.519 22.1899 74.372 22.8686C74.226 23.5473 74.286 24.2543 74.545 24.8987C74.803 25.5431 75.249 26.0954 75.825 26.4845C76.4 26.8737 77.079 27.082 77.774 27.0826C78.227 27.1153 78.683 27.0525 79.11 26.8984C79.538 26.7443 79.928 26.5023 80.257 26.188C80.585 25.8737 80.844 25.4942 81.016 25.0738C81.188 24.6534 81.27 24.2017 81.257 23.7476Z" fill="#4D4D4D"/>
<path d="M87.903 24.0375C87.903 22.5313 88.351 21.0589 89.189 19.8068C90.026 18.5546 91.217 17.5789 92.61 17.0031C94.003 16.4274 95.536 16.2775 97.014 16.5724C98.492 16.8673 99.85 17.5938 100.915 18.6598C101.98 19.7259 102.704 21.0837 102.997 22.5613C103.289 24.039 103.136 25.57 102.557 26.9608C101.978 28.3515 101 29.5394 99.745 30.3742C98.49 31.2089 97.015 31.6529 95.508 31.65C94.505 31.6598 93.511 31.4694 92.583 31.0901C91.655 30.7108 90.812 30.1502 90.104 29.4411C89.396 28.7321 88.836 27.8889 88.458 26.9611C88.08 26.0332 87.892 25.0392 87.903 24.0375ZM98.817 24.0375C98.8 23.387 98.591 22.7561 98.216 22.2237C97.842 21.6913 97.318 21.2811 96.712 21.0446C96.105 20.8081 95.442 20.7558 94.805 20.8942C94.169 21.0326 93.588 21.3556 93.134 21.8226C92.681 22.2897 92.375 22.8801 92.256 23.5198C92.137 24.1596 92.209 24.8202 92.464 25.419C92.719 26.0178 93.146 26.5281 93.69 26.8859C94.234 27.2437 94.871 27.4332 95.522 27.4305C95.965 27.4392 96.405 27.3564 96.815 27.1874C97.225 27.0184 97.595 26.7668 97.903 26.4484C98.21 26.13 98.449 25.7515 98.604 25.3367C98.759 24.9219 98.826 24.4796 98.802 24.0375H98.817Z" fill="#4D4D4D"/>
<path d="M105.13 13.0175C105.13 12.5071 105.281 12.008 105.565 11.5836C105.849 11.1592 106.252 10.8283 106.724 10.633C107.196 10.4376 107.716 10.3865 108.217 10.4861C108.718 10.5857 109.178 10.8315 109.539 11.1925C109.901 11.5534 110.147 12.0133 110.246 12.514C110.346 13.0147 110.295 13.5336 110.099 14.0052C109.904 14.4768 109.573 14.8799 109.148 15.1635C108.723 15.4472 108.224 15.5985 107.713 15.5985C107.03 15.591 106.377 15.3166 105.895 14.8342C105.412 14.3518 105.137 13.6997 105.13 13.0175ZM105.55 16.86H109.904V31.215H105.55V16.86Z" fill="#4D4D4D"/>
<path d="M128.538 24.0375C128.587 24.9922 128.446 25.9471 128.124 26.8473C127.802 27.7474 127.305 28.5751 126.662 29.2826C126.018 29.9901 125.241 30.5635 124.375 30.9698C123.509 31.3761 122.571 31.6073 121.616 31.65C120.805 31.7039 119.992 31.5741 119.238 31.2703C118.484 30.9665 117.809 30.4966 117.262 29.8955V36.986H112.908V16.86H117.262V18.2085C117.809 17.6092 118.485 17.1414 119.239 16.8401C119.993 16.5388 120.806 16.4117 121.616 16.4685C122.568 16.5113 123.502 16.7411 124.365 17.1447C125.228 17.5482 126.003 18.1177 126.646 18.8205C127.289 19.5234 127.786 20.3459 128.111 21.241C128.436 22.1361 128.581 23.0864 128.538 24.0375ZM124.184 24.0375C124.167 23.3641 123.951 22.7106 123.564 22.1592C123.177 21.6077 122.635 21.1827 122.007 20.9374C121.379 20.6921 120.693 20.6375 120.034 20.7804C119.375 20.9233 118.773 21.2573 118.303 21.7406C117.834 22.2239 117.517 22.835 117.394 23.4972C117.27 24.1595 117.345 24.8434 117.609 25.4634C117.872 26.0834 118.313 26.6118 118.877 26.9823C119.44 27.3529 120.1 27.5491 120.774 27.5465C121.236 27.5661 121.696 27.4879 122.126 27.3171C122.555 27.1463 122.944 26.8867 123.266 26.5554C123.588 26.2241 123.836 25.8285 123.994 25.3945C124.153 24.9606 124.217 24.4982 124.184 24.0375Z" fill="#4D4D4D"/>
<path d="M141.788 26.9087C141.788 30.2147 138.885 31.6212 135.809 31.6212C134.554 31.7341 133.294 31.4683 132.192 30.8583C131.09 30.2482 130.196 29.322 129.626 28.1992L133.371 26.0822C133.519 26.5996 133.841 27.0504 134.282 27.3592C134.723 27.668 135.257 27.8161 135.794 27.7787C136.825 27.7787 137.347 27.4597 137.347 26.8797C137.347 25.2992 130.279 26.1402 130.279 21.1667C130.279 18.0347 132.921 16.4687 135.91 16.4687C137.047 16.4179 138.176 16.6755 139.177 17.2141C140.179 17.7528 141.016 18.5525 141.599 19.5282L137.855 21.5002C137.689 21.1261 137.419 20.8079 137.077 20.5841C136.734 20.3602 136.334 20.2402 135.925 20.2387C135.17 20.2387 134.72 20.5287 134.72 21.0362C134.72 22.6892 141.788 21.6017 141.788 26.9087Z" fill="#4D4D4D"/>
<path d="M157.563 16.8599V31.2149H153.209V29.8664C152.714 30.4633 152.086 30.9357 151.375 31.2455C150.665 31.5553 149.891 31.6938 149.116 31.6499C146.214 31.6499 143.732 29.5764 143.732 25.7049V16.8599H148.086V25.0524C148.052 25.3949 148.092 25.7407 148.205 26.066C148.318 26.3913 148.5 26.6883 148.738 26.9365C148.977 27.1846 149.267 27.3781 149.588 27.5034C149.909 27.6287 150.253 27.683 150.597 27.6624C152.164 27.6624 153.267 26.7344 153.267 24.7624V16.8599H157.563Z" fill="#4D4D4D"/>
<path d="M182.234 22.3991V31.2151H177.88V22.7761C177.88 21.3261 177.198 20.4271 175.819 20.4271C174.44 20.4271 173.57 21.4276 173.57 23.1241V31.2151H169.216V22.7761C169.216 21.3261 168.534 20.4271 167.155 20.4271C165.777 20.4271 164.906 21.4276 164.906 23.1241V31.2151H160.552V16.8601H164.906V18.1796C165.357 17.5967 165.945 17.135 166.619 16.8363C167.293 16.5376 168.031 16.4112 168.766 16.4686C169.502 16.4302 170.236 16.5838 170.895 16.9143C171.554 17.2448 172.116 17.7408 172.525 18.3536C173.003 17.7133 173.636 17.2046 174.364 16.875C175.093 16.5454 175.893 16.4055 176.69 16.4686C180.086 16.4686 182.234 18.8176 182.234 22.3991Z" fill="#4D4D4D"/>
<path d="M20.3487 6.49259V0.330093H0.902206V42.6701H20.3487V36.5076C16.3651 36.5076 12.5446 34.9264 9.72771 32.112C6.91091 29.2975 5.32841 25.4803 5.32841 21.5001C5.32841 17.5198 6.91091 13.7026 9.72771 10.8882C12.5446 8.07369 16.3651 6.49259 20.3487 6.49259Z" fill="#3187ED"/>
<path d="M20.3486 6.4924V36.5074C24.3323 36.5074 28.1527 34.9263 30.9696 32.1118C33.7864 29.2974 35.3689 25.4802 35.3689 21.4999C35.3689 17.5197 33.7864 13.7025 30.9696 10.888C28.1527 8.0736 24.3323 6.4924 20.3486 6.4924Z" fill="#3187ED"/>
<path d="M185.891 16.7728C187.654 16.7728 189.083 15.3446 189.083 13.5828C189.083 11.821 187.654 10.3928 185.891 10.3928C184.127 10.3928 182.698 11.821 182.698 13.5828C182.698 15.3446 184.127 16.7728 185.891 16.7728Z" fill="#4D4D4D"/>
</svg>
